# Blender 4.0.2
# www.blender.org
mtllib camera.mtl
o Cube
v 1.000000 0.736787 -1.000000
v 1.000000 1.000000 -0.736787
v 1.000000 0.868393 -0.964736
v 1.000000 0.964736 -0.868393
v 1.000000 -1.000000 -0.736787
v 1.000000 -0.736787 -1.000000
v 1.000000 -0.964736 -0.868393
v 1.000000 -0.868393 -0.964736
v 1.000000 1.000000 0.736787
v 1.000000 0.736787 1.000000
v 1.000000 0.964736 0.868393
v 1.000000 0.868393 0.964736
v 1.000000 -0.736787 1.000000
v 1.000000 -1.000000 0.736787
v 1.000000 -0.868393 0.964736
v 1.000000 -0.964736 0.868393
v -3.000000 1.000000 -0.736787
v -3.000000 0.736787 -1.000000
v -3.000000 0.964736 -0.868393
v -3.000000 0.868393 -0.964736
v -3.000000 -0.736787 -1.000000
v -3.000000 -1.000000 -0.736787
v -3.000000 -0.868393 -0.964736
v -3.000000 -0.964736 -0.868393
v -3.000000 0.736787 1.000000
v -3.000000 1.000000 0.736787
v -3.000000 0.868393 0.964736
v -3.000000 0.964736 0.868393
v -3.000000 -1.000000 0.736787
v -3.000000 -0.736787 1.000000
v -3.000000 -0.964736 0.868393
v -3.000000 -0.868393 0.964736
v 1.486542 0.000000 -0.743237
v 2.913458 -0.000000 -1.008891
v 1.486542 -0.144998 -0.728956
v 2.913458 -0.196825 -0.989505
v 1.486542 -0.284425 -0.686662
v 2.913458 -0.386086 -0.932093
v 1.486542 -0.412921 -0.617979
v 2.913458 -0.560510 -0.838862
v 1.486542 -0.525548 -0.525548
v 2.913458 -0.713393 -0.713393
v 1.486542 -0.617979 -0.412921
v 2.913458 -0.838862 -0.560510
v 1.486542 -0.686662 -0.284425
v 2.913458 -0.932094 -0.386086
v 1.486542 -0.728956 -0.144998
v 2.913458 -0.989505 -0.196825
v 1.486542 -0.743237 0.000000
v 2.913458 -1.008891 -0.000000
v 1.486542 -0.728956 0.144998
v 2.913458 -0.989505 0.196825
v 1.486542 -0.686662 0.284425
v 2.913458 -0.932094 0.386086
v 1.486542 -0.617979 0.412921
v 2.913458 -0.838862 0.560510
v 1.486542 -0.525548 0.525548
v 2.913458 -0.713393 0.713393
v 1.486542 -0.412921 0.617979
v 2.913458 -0.560510 0.838862
v 1.486542 -0.284425 0.686662
v 2.913458 -0.386086 0.932093
v 1.486542 -0.144998 0.728956
v 2.913458 -0.196825 0.989505
v 1.486542 0.000000 0.743237
v 2.913458 -0.000000 1.008891
v 1.486542 0.144998 0.728956
v 2.913458 0.196825 0.989505
v 1.486542 0.284425 0.686662
v 2.913458 0.386086 0.932093
v 1.486542 0.412921 0.617979
v 2.913458 0.560510 0.838862
v 1.486542 0.525548 0.525548
v 2.913458 0.713393 0.713393
v 1.486542 0.617979 0.412921
v 2.913458 0.838862 0.560510
v 1.486542 0.686662 0.284425
v 2.913458 0.932093 0.386086
v 1.486542 0.728956 0.144998
v 2.913458 0.989505 0.196825
v 1.486542 0.743238 0.000000
v 2.913458 1.008891 -0.000000
v 1.486542 0.728956 -0.144998
v 2.913458 0.989505 -0.196825
v 1.486542 0.686662 -0.284425
v 2.913458 0.932093 -0.386086
v 1.486542 0.617979 -0.412921
v 2.913458 0.838862 -0.560510
v 1.486542 0.525548 -0.525548
v 2.913458 0.713393 -0.713393
v 1.486542 0.412921 -0.617979
v 2.913458 0.560510 -0.838862
v 1.486542 0.284425 -0.686662
v 2.913458 0.386086 -0.932093
v 1.486542 0.144998 -0.728956
v 2.913458 0.196825 -0.989505
v 0.000000 2.791276 -0.613458
v 0.000000 2.791276 0.613458
v 0.173879 2.774150 -0.613458
v 0.173879 2.774150 0.613458
v 0.341076 2.723431 -0.613458
v 0.341076 2.723431 0.613458
v 0.495166 2.641068 -0.613458
v 0.495166 2.641068 0.613458
v 0.630227 2.530227 -0.613458
v 0.630227 2.530227 0.613458
v 0.741069 2.395166 -0.613458
v 0.741069 2.395166 0.613458
v 0.823431 2.241076 -0.613458
v 0.823431 2.241076 0.613458
v 0.874150 2.073879 -0.613458
v 0.874150 2.073879 0.613458
v 0.891276 1.900000 -0.613458
v 0.891276 1.900000 0.613458
v 0.874150 1.726121 -0.613458
v 0.874150 1.726121 0.613458
v 0.823431 1.558924 -0.613458
v 0.823431 1.558923 0.613458
v 0.741069 1.404834 -0.613458
v 0.741069 1.404834 0.613458
v 0.630227 1.269773 -0.613458
v 0.630227 1.269773 0.613458
v 0.495166 1.158931 -0.613458
v 0.495166 1.158931 0.613458
v 0.341076 1.076569 -0.613458
v 0.341076 1.076569 0.613458
v 0.173879 1.025850 -0.613458
v 0.173879 1.025850 0.613458
v 0.000000 1.008724 -0.613458
v 0.000000 1.008724 0.613458
v -0.173879 1.025850 -0.613458
v -0.173879 1.025850 0.613458
v -0.341076 1.076569 -0.613458
v -0.341076 1.076569 0.613458
v -0.495166 1.158931 -0.613458
v -0.495166 1.158931 0.613458
v -0.630227 1.269773 -0.613458
v -0.630227 1.269773 0.613458
v -0.741069 1.404834 -0.613458
v -0.741069 1.404834 0.613458
v -0.823431 1.558924 -0.613458
v -0.823431 1.558923 0.613458
v -0.874150 1.726121 -0.613458
v -0.874150 1.726121 0.613458
v -0.891276 1.900000 -0.613458
v -0.891276 1.900000 0.613458
v -0.874150 2.073879 -0.613458
v -0.874150 2.073879 0.613458
v -0.823431 2.241076 -0.613458
v -0.823431 2.241076 0.613458
v -0.741069 2.395166 -0.613458
v -0.741069 2.395166 0.613458
v -0.630227 2.530227 -0.613458
v -0.630227 2.530227 0.613458
v -0.495166 2.641068 -0.613458
v -0.495166 2.641068 0.613458
v -0.341076 2.723431 -0.613458
v -0.341076 2.723431 0.613458
v -0.173879 2.774150 -0.613458
v -0.173879 2.774150 0.613458
v -2.000000 2.791276 -0.613458
v -2.000000 2.791276 0.613458
v -1.826121 2.774150 -0.613458
v -1.826121 2.774150 0.613458
v -1.658924 2.723431 -0.613458
v -1.658924 2.723431 0.613458
v -1.504834 2.641068 -0.613458
v -1.504834 2.641068 0.613458
v -1.369773 2.530227 -0.613458
v -1.369773 2.530227 0.613458
v -1.258931 2.395166 -0.613458
v -1.258931 2.395166 0.613458
v -1.176569 2.241076 -0.613458
v -1.176569 2.241076 0.613458
v -1.125850 2.073879 -0.613458
v -1.125850 2.073879 0.613458
v -1.108724 1.900000 -0.613458
v -1.108724 1.900000 0.613458
v -1.125850 1.726121 -0.613458
v -1.125850 1.726121 0.613458
v -1.176569 1.558924 -0.613458
v -1.176569 1.558923 0.613458
v -1.258931 1.404834 -0.613458
v -1.258931 1.404834 0.613458
v -1.369773 1.269773 -0.613458
v -1.369773 1.269773 0.613458
v -1.504834 1.158931 -0.613458
v -1.504834 1.158931 0.613458
v -1.658924 1.076569 -0.613458
v -1.658924 1.076569 0.613458
v -1.826121 1.025850 -0.613458
v -1.826121 1.025850 0.613458
v -2.000000 1.008724 -0.613458
v -2.000000 1.008724 0.613458
v -2.173879 1.025850 -0.613458
v -2.173879 1.025850 0.613458
v -2.341076 1.076569 -0.613458
v -2.341076 1.076569 0.613458
v -2.495166 1.158931 -0.613458
v -2.495166 1.158931 0.613458
v -2.630227 1.269773 -0.613458
v -2.630227 1.269773 0.613458
v -2.741069 1.404834 -0.613458
v -2.741069 1.404834 0.613458
v -2.823431 1.558924 -0.613458
v -2.823431 1.558923 0.613458
v -2.874150 1.726121 -0.613458
v -2.874150 1.726121 0.613458
v -2.891276 1.900000 -0.613458
v -2.891276 1.900000 0.613458
v -2.874150 2.073879 -0.613458
v -2.874150 2.073879 0.613458
v -2.823431 2.241076 -0.613458
v -2.823431 2.241076 0.613458
v -2.741069 2.395166 -0.613458
v -2.741069 2.395166 0.613458
v -2.630227 2.530227 -0.613458
v -2.630227 2.530227 0.613458
v -2.495166 2.641068 -0.613458
v -2.495166 2.641068 0.613458
v -2.341076 2.723431 -0.613458
v -2.341076 2.723431 0.613458
v -2.173879 2.774150 -0.613458
v -2.173879 2.774150 0.613458
vn -0.0000 -1.0000 -0.0000
vn -1.0000 -0.0000 -0.0000
vn -0.0000 -0.0000 1.0000
vn -0.0000 1.0000 -0.0000
vn 1.0000 -0.0000 -0.0000
vn -0.0000 -0.9659 -0.2588
vn -0.0000 -0.7071 -0.7071
vn -0.0000 -0.2588 -0.9659
vn -0.0000 0.9659 0.2588
vn -0.0000 0.7071 0.7071
vn -0.0000 0.2588 0.9659
vn -0.0000 -0.9659 0.2588
vn -0.0000 -0.7071 0.7071
vn -0.0000 -0.2588 0.9659
vn -0.0000 0.9659 -0.2588
vn -0.0000 0.7071 -0.7071
vn -0.0000 0.2588 -0.9659
vn -0.0000 -0.0000 -1.0000
vn -0.1822 -0.0964 -0.9785
vn -0.1822 -0.2854 -0.9409
vn -0.1822 -0.4635 -0.8672
vn -0.1822 -0.6238 -0.7601
vn -0.1822 -0.7601 -0.6238
vn -0.1822 -0.8672 -0.4635
vn -0.1822 -0.9409 -0.2854
vn -0.1822 -0.9785 -0.0964
vn -0.1822 -0.9785 0.0964
vn -0.1822 -0.9409 0.2854
vn -0.1822 -0.8672 0.4635
vn -0.1822 -0.7601 0.6238
vn -0.1822 -0.6238 0.7601
vn -0.1822 -0.4635 0.8672
vn -0.1822 -0.2854 0.9409
vn -0.1822 -0.0964 0.9785
vn -0.1822 0.0964 0.9785
vn -0.1822 0.2854 0.9409
vn -0.1822 0.4635 0.8672
vn -0.1822 0.6238 0.7601
vn -0.1822 0.7601 0.6238
vn -0.1822 0.8672 0.4635
vn -0.1822 0.9409 0.2854
vn -0.1822 0.9785 0.0964
vn -0.1822 0.9785 -0.0964
vn -0.1822 0.9409 -0.2854
vn -0.1822 0.8672 -0.4635
vn -0.1822 0.7601 -0.6238
vn -0.1822 0.6238 -0.7601
vn -0.1822 0.4635 -0.8672
vn -0.1822 0.2854 -0.9409
vn -0.1822 0.0964 -0.9785
vn 0.5528 -0.0000 -0.8333
vn 0.7508 0.4671 -0.4671
vn 0.5528 0.8333 -0.0000
vn 0.7508 0.4671 0.4671
vn 0.7508 -0.4671 0.4671
vn 0.5528 -0.8333 -0.0000
vn 0.5528 -0.0000 0.8333
vn 0.0980 0.9952 -0.0000
vn 0.2903 0.9569 -0.0000
vn 0.4714 0.8819 -0.0000
vn 0.6344 0.7730 -0.0000
vn 0.7730 0.6344 -0.0000
vn 0.8819 0.4714 -0.0000
vn 0.9569 0.2903 -0.0000
vn 0.9952 0.0980 -0.0000
vn 0.9952 -0.0980 -0.0000
vn 0.9569 -0.2903 -0.0000
vn 0.8819 -0.4714 -0.0000
vn 0.7730 -0.6344 -0.0000
vn 0.6344 -0.7730 -0.0000
vn 0.4714 -0.8819 -0.0000
vn 0.2903 -0.9569 -0.0000
vn 0.0980 -0.9952 -0.0000
vn -0.0980 -0.9952 -0.0000
vn -0.2903 -0.9569 -0.0000
vn -0.4714 -0.8819 -0.0000
vn -0.6344 -0.7730 -0.0000
vn -0.7730 -0.6344 -0.0000
vn -0.8819 -0.4714 -0.0000
vn -0.9569 -0.2903 -0.0000
vn -0.9952 -0.0980 -0.0000
vn -0.9952 0.0980 -0.0000
vn -0.9569 0.2903 -0.0000
vn -0.8819 0.4714 -0.0000
vn -0.7730 0.6344 -0.0000
vn -0.6344 0.7730 -0.0000
vn -0.4714 0.8819 -0.0000
vn -0.2903 0.9569 -0.0000
vn -0.0980 0.9952 -0.0000
vt 0.125000 0.532902
vt 0.375000 0.532902
vt 0.375000 0.717098
vt 0.125000 0.717098
vt 0.375000 0.032902
vt 0.379408 0.016451
vt 0.391451 0.004408
vt 0.407902 0.000000
vt 0.592098 0.000000
vt 0.608549 0.004408
vt 0.620592 0.016451
vt 0.625000 0.032902
vt 0.625000 0.217098
vt 0.620592 0.233549
vt 0.608549 0.245592
vt 0.592098 0.250000
vt 0.407902 0.250000
vt 0.391451 0.245592
vt 0.379408 0.233549
vt 0.375000 0.217098
vt 0.407902 0.750000
vt 0.592098 0.750000
vt 0.592098 1.000000
vt 0.407902 1.000000
vt 0.625000 0.532902
vt 0.875000 0.532902
vt 0.875000 0.717098
vt 0.625000 0.717098
vt 0.379408 0.516451
vt 0.391451 0.504408
vt 0.407902 0.500000
vt 0.592098 0.500000
vt 0.608549 0.504408
vt 0.620592 0.516451
vt 0.620592 0.733549
vt 0.608549 0.745592
vt 0.391451 0.745592
vt 0.379408 0.733549
vt 0.125000 0.516451
vt 0.375000 0.516451
vt 0.125000 0.500000
vt 0.375000 0.500000
vt 0.375000 0.250000
vt 0.875000 0.750000
vt 0.625000 0.750000
vt 0.625000 1.000000
vt 0.608549 1.000000
vt 0.608549 0.750000
vt 0.375000 0.733549
vt 0.125000 0.733549
vt 0.375000 0.750000
vt 0.125000 0.750000
vt 0.375000 1.000000
vt 0.625000 0.500000
vt 0.875000 0.500000
vt 0.625000 0.250000
vt 0.608549 0.500000
vt 0.608549 0.250000
vt 1.000000 0.500000
vt 1.000000 1.000000
vt 0.968750 1.000000
vt 0.968750 0.500000
vt 0.937500 1.000000
vt 0.937500 0.500000
vt 0.906250 1.000000
vt 0.906250 0.500000
vt 0.875000 1.000000
vt 0.843750 1.000000
vt 0.843750 0.500000
vt 0.812500 1.000000
vt 0.812500 0.500000
vt 0.781250 1.000000
vt 0.781250 0.500000
vt 0.750000 1.000000
vt 0.750000 0.500000
vt 0.718750 1.000000
vt 0.718750 0.500000
vt 0.687500 1.000000
vt 0.687500 0.500000
vt 0.656250 1.000000
vt 0.656250 0.500000
vt 0.593750 1.000000
vt 0.593750 0.500000
vt 0.562500 1.000000
vt 0.562500 0.500000
vt 0.531250 1.000000
vt 0.531250 0.500000
vt 0.500000 1.000000
vt 0.500000 0.500000
vt 0.468750 1.000000
vt 0.468750 0.500000
vt 0.437500 1.000000
vt 0.437500 0.500000
vt 0.406250 1.000000
vt 0.406250 0.500000
vt 0.343750 1.000000
vt 0.343750 0.500000
vt 0.312500 1.000000
vt 0.312500 0.500000
vt 0.281250 1.000000
vt 0.281250 0.500000
vt 0.250000 1.000000
vt 0.250000 0.500000
vt 0.218750 1.000000
vt 0.218750 0.500000
vt 0.187500 1.000000
vt 0.187500 0.500000
vt 0.156250 1.000000
vt 0.156250 0.500000
vt 0.125000 1.000000
vt 0.093750 1.000000
vt 0.093750 0.500000
vt 0.062500 1.000000
vt 0.062500 0.500000
vt 0.296822 0.485388
vt 0.250000 0.490000
vt 0.203178 0.485388
vt 0.158156 0.471731
vt 0.116663 0.449553
vt 0.080294 0.419706
vt 0.050447 0.383337
vt 0.028269 0.341844
vt 0.014612 0.296822
vt 0.010000 0.250000
vt 0.014612 0.203178
vt 0.028269 0.158156
vt 0.050447 0.116663
vt 0.080294 0.080294
vt 0.116663 0.050447
vt 0.158156 0.028269
vt 0.203178 0.014612
vt 0.250000 0.010000
vt 0.296822 0.014612
vt 0.341844 0.028269
vt 0.383337 0.050447
vt 0.419706 0.080294
vt 0.449553 0.116663
vt 0.471731 0.158156
vt 0.485388 0.203178
vt 0.490000 0.250000
vt 0.485388 0.296822
vt 0.471731 0.341844
vt 0.449553 0.383337
vt 0.419706 0.419706
vt 0.383337 0.449553
vt 0.341844 0.471731
vt 0.031250 1.000000
vt 0.031250 0.500000
vt 0.000000 1.000000
vt 0.000000 0.500000
vt 0.750000 0.490000
vt 0.796822 0.485388
vt 0.841844 0.471731
vt 0.883337 0.449553
vt 0.919706 0.419706
vt 0.949553 0.383337
vt 0.971731 0.341844
vt 0.985388 0.296822
vt 0.990000 0.250000
vt 0.985388 0.203178
vt 0.971731 0.158156
vt 0.949553 0.116663
vt 0.919706 0.080294
vt 0.883337 0.050447
vt 0.841844 0.028269
vt 0.796822 0.014612
vt 0.750000 0.010000
vt 0.703178 0.014612
vt 0.658156 0.028269
vt 0.616663 0.050447
vt 0.580294 0.080294
vt 0.550447 0.116663
vt 0.528269 0.158156
vt 0.514612 0.203178
vt 0.510000 0.250000
vt 0.514612 0.296822
vt 0.528269 0.341844
vt 0.550447 0.383337
vt 0.580294 0.419706
vt 0.616663 0.449553
vt 0.658156 0.471731
vt 0.703178 0.485388
vt 0.000000 0.000000
s 0
usemtl Material
f 22/1/1 5/2/1 14/3/1 29/4/1
f 29/5/2 31/6/2 32/7/2 30/8/2 25/9/2 27/10/2 28/11/2 26/12/2 17/13/2 19/14/2 20/15/2 18/16/2 21/17/2 23/18/2 24/19/2 22/20/2
f 13/21/3 10/22/3 25/23/3 30/24/3
f 2/25/4 17/26/4 26/27/4 9/28/4
f 5/2/5 7/29/5 8/30/5 6/31/5 1/32/5 3/33/5 4/34/5 2/25/5 9/28/5 11/35/5 12/36/5 10/22/5 13/21/5 15/37/5 16/38/5 14/3/5
f 5/2/6 22/1/6 24/39/6 7/40/6
f 7/40/7 24/39/7 23/41/7 8/42/7
f 8/42/8 23/43/8 21/17/8 6/31/8
f 9/28/9 26/27/9 28/44/9 11/45/9
f 11/45/10 28/46/10 27/47/10 12/48/10
f 12/48/11 27/47/11 25/23/11 10/22/11
f 29/4/12 14/3/12 16/49/12 31/50/12
f 31/50/13 16/49/13 15/51/13 32/52/13
f 32/53/14 15/51/14 13/21/14 30/24/14
f 17/26/15 2/25/15 4/54/15 19/55/15
f 19/56/16 4/54/16 3/57/16 20/58/16
f 20/58/17 3/57/17 1/32/17 18/16/17
f 21/17/18 18/16/18 1/32/18 6/31/18
f 33/59/19 34/60/19 36/61/19 35/62/19
f 35/62/20 36/61/20 38/63/20 37/64/20
f 37/64/21 38/63/21 40/65/21 39/66/21
f 39/66/22 40/65/22 42/67/22 41/55/22
f 41/55/23 42/67/23 44/68/23 43/69/23
f 43/69/24 44/68/24 46/70/24 45/71/24
f 45/71/25 46/70/25 48/72/25 47/73/25
f 47/73/26 48/72/26 50/74/26 49/75/26
f 49/75/27 50/74/27 52/76/27 51/77/27
f 51/77/28 52/76/28 54/78/28 53/79/28
f 53/79/29 54/78/29 56/80/29 55/81/29
f 55/81/30 56/80/30 58/46/30 57/54/30
f 57/54/31 58/46/31 60/82/31 59/83/31
f 59/83/32 60/82/32 62/84/32 61/85/32
f 61/85/33 62/84/33 64/86/33 63/87/33
f 63/87/34 64/86/34 66/88/34 65/89/34
f 65/89/35 66/88/35 68/90/35 67/91/35
f 67/91/36 68/90/36 70/92/36 69/93/36
f 69/93/37 70/92/37 72/94/37 71/95/37
f 71/95/38 72/94/38 74/53/38 73/42/38
f 73/42/39 74/53/39 76/96/39 75/97/39
f 75/97/40 76/96/40 78/98/40 77/99/40
f 77/99/41 78/98/41 80/100/41 79/101/41
f 79/101/42 80/100/42 82/102/42 81/103/42
f 81/103/43 82/102/43 84/104/43 83/105/43
f 83/105/44 84/104/44 86/106/44 85/107/44
f 85/107/45 86/106/45 88/108/45 87/109/45
f 87/109/46 88/108/46 90/110/46 89/41/46
f 89/41/47 90/110/47 92/111/47 91/112/47
f 91/112/48 92/111/48 94/113/48 93/114/48
f 36/115/5 34/116/5 96/117/5 94/118/5 92/119/5 90/120/5 88/121/5 86/122/5 84/123/5 82/124/5 80/125/5 78/126/5 76/127/5 74/128/5 72/129/5 70/130/5 68/131/5 66/132/5 64/133/5 62/134/5 60/135/5 58/136/5 56/137/5 54/138/5 52/139/5 50/140/5 48/141/5 46/142/5 44/143/5 42/144/5 40/145/5 38/146/5
f 93/114/49 94/113/49 96/147/49 95/148/49
f 95/148/50 96/147/50 34/149/50 33/150/50
f 33/151/2 35/152/2 37/153/2 39/154/2 41/155/2 43/156/2 45/157/2 47/158/2 49/159/2 51/160/2 53/161/2 55/162/2 57/163/2 59/164/2 61/165/2 63/166/2 65/167/2 67/168/2 69/169/2 71/170/2 73/171/2 75/172/2 77/173/2 79/174/2 81/175/2 83/176/2 85/177/2 87/178/2 89/179/2 91/180/2 93/181/2 95/182/2
f 5/2/5 7/29/5 41/183/5 8/30/5 6/31/5 39/66/5 37/64/5 35/62/5 33/59/5 95/148/5 93/114/5 91/112/5 1/32/5 3/33/5 89/183/5 4/34/5 2/25/5 87/109/5 85/107/5 83/105/5 81/103/5 79/101/5 77/99/5 75/97/5 9/28/5 11/35/5 73/183/5 12/36/5 10/22/5 71/95/5 69/93/5 67/91/5 65/89/5 63/87/5 61/85/5 59/83/5 13/21/5 15/37/5 57/183/5 16/38/5 14/3/5 55/81/5 53/79/5 51/77/5 49/75/5 47/73/5 45/71/5 43/69/5
f 1/183/51 91/183/51 93/183/51 95/183/51 33/183/51 35/183/51 37/183/51 39/183/51 6/183/51
f 4/183/52 89/183/52 3/183/52
f 87/183/53 2/183/53 9/183/53 75/183/53 77/183/53 79/183/53 81/183/53 83/183/53 85/183/53
f 12/183/54 73/183/54 11/183/54
f 16/38/55 57/183/55 15/37/55
f 55/183/56 14/183/56 5/183/56 43/183/56 45/183/56 47/183/56 49/183/56 51/183/56 53/183/56
f 71/183/57 10/183/57 13/183/57 59/183/57 61/183/57 63/183/57 65/183/57 67/183/57 69/183/57
f 97/59/58 98/60/58 100/61/58 99/62/58
f 99/62/59 100/61/59 102/63/59 101/64/59
f 101/64/60 102/63/60 104/65/60 103/66/60
f 103/66/61 104/65/61 106/67/61 105/55/61
f 105/55/62 106/67/62 108/68/62 107/69/62
f 107/69/63 108/68/63 110/70/63 109/71/63
f 109/71/64 110/70/64 112/72/64 111/73/64
f 111/73/65 112/72/65 114/74/65 113/75/65
f 113/75/66 114/74/66 116/76/66 115/77/66
f 115/77/67 116/76/67 118/78/67 117/79/67
f 117/79/68 118/78/68 120/80/68 119/81/68
f 119/81/69 120/80/69 122/46/69 121/54/69
f 121/54/70 122/46/70 124/82/70 123/83/70
f 123/83/71 124/82/71 126/84/71 125/85/71
f 125/85/72 126/84/72 128/86/72 127/87/72
f 127/87/73 128/86/73 130/88/73 129/89/73
f 129/89/74 130/88/74 132/90/74 131/91/74
f 131/91/75 132/90/75 134/92/75 133/93/75
f 133/93/76 134/92/76 136/94/76 135/95/76
f 135/95/77 136/94/77 138/53/77 137/42/77
f 137/42/78 138/53/78 140/96/78 139/97/78
f 139/97/79 140/96/79 142/98/79 141/99/79
f 141/99/80 142/98/80 144/100/80 143/101/80
f 143/101/81 144/100/81 146/102/81 145/103/81
f 145/103/82 146/102/82 148/104/82 147/105/82
f 147/105/83 148/104/83 150/106/83 149/107/83
f 149/107/84 150/106/84 152/108/84 151/109/84
f 151/109/85 152/108/85 154/110/85 153/41/85
f 153/41/86 154/110/86 156/111/86 155/112/86
f 155/112/87 156/111/87 158/113/87 157/114/87
f 100/115/3 98/116/3 160/117/3 158/118/3 156/119/3 154/120/3 152/121/3 150/122/3 148/123/3 146/124/3 144/125/3 142/126/3 140/127/3 138/128/3 136/129/3 134/130/3 132/131/3 130/132/3 128/133/3 126/134/3 124/135/3 122/136/3 120/137/3 118/138/3 116/139/3 114/140/3 112/141/3 110/142/3 108/143/3 106/144/3 104/145/3 102/146/3
f 157/114/88 158/113/88 160/147/88 159/148/88
f 159/148/89 160/147/89 98/149/89 97/150/89
f 97/151/18 99/152/18 101/153/18 103/154/18 105/155/18 107/156/18 109/157/18 111/158/18 113/159/18 115/160/18 117/161/18 119/162/18 121/163/18 123/164/18 125/165/18 127/166/18 129/167/18 131/168/18 133/169/18 135/170/18 137/171/18 139/172/18 141/173/18 143/174/18 145/175/18 147/176/18 149/177/18 151/178/18 153/179/18 155/180/18 157/181/18 159/182/18
f 161/59/58 162/60/58 164/61/58 163/62/58
f 163/62/59 164/61/59 166/63/59 165/64/59
f 165/64/60 166/63/60 168/65/60 167/66/60
f 167/66/61 168/65/61 170/67/61 169/55/61
f 169/55/62 170/67/62 172/68/62 171/69/62
f 171/69/63 172/68/63 174/70/63 173/71/63
f 173/71/64 174/70/64 176/72/64 175/73/64
f 175/73/65 176/72/65 178/74/65 177/75/65
f 177/75/66 178/74/66 180/76/66 179/77/66
f 179/77/67 180/76/67 182/78/67 181/79/67
f 181/79/68 182/78/68 184/80/68 183/81/68
f 183/81/69 184/80/69 186/46/69 185/54/69
f 185/54/70 186/46/70 188/82/70 187/83/70
f 187/83/71 188/82/71 190/84/71 189/85/71
f 189/85/72 190/84/72 192/86/72 191/87/72
f 191/87/73 192/86/73 194/88/73 193/89/73
f 193/89/74 194/88/74 196/90/74 195/91/74
f 195/91/75 196/90/75 198/92/75 197/93/75
f 197/93/76 198/92/76 200/94/76 199/95/76
f 199/95/77 200/94/77 202/53/77 201/42/77
f 201/42/78 202/53/78 204/96/78 203/97/78
f 203/97/79 204/96/79 206/98/79 205/99/79
f 205/99/80 206/98/80 208/100/80 207/101/80
f 207/101/81 208/100/81 210/102/81 209/103/81
f 209/103/82 210/102/82 212/104/82 211/105/82
f 211/105/83 212/104/83 214/106/83 213/107/83
f 213/107/84 214/106/84 216/108/84 215/109/84
f 215/109/85 216/108/85 218/110/85 217/41/85
f 217/41/86 218/110/86 220/111/86 219/112/86
f 219/112/87 220/111/87 222/113/87 221/114/87
f 164/115/3 162/116/3 224/117/3 222/118/3 220/119/3 218/120/3 216/121/3 214/122/3 212/123/3 210/124/3 208/125/3 206/126/3 204/127/3 202/128/3 200/129/3 198/130/3 196/131/3 194/132/3 192/133/3 190/134/3 188/135/3 186/136/3 184/137/3 182/138/3 180/139/3 178/140/3 176/141/3 174/142/3 172/143/3 170/144/3 168/145/3 166/146/3
f 221/114/88 222/113/88 224/147/88 223/148/88
f 223/148/89 224/147/89 162/149/89 161/150/89
f 161/151/18 163/152/18 165/153/18 167/154/18 169/155/18 171/156/18 173/157/18 175/158/18 177/159/18 179/160/18 181/161/18 183/162/18 185/163/18 187/164/18 189/165/18 191/166/18 193/167/18 195/168/18 197/169/18 199/170/18 201/171/18 203/172/18 205/173/18 207/174/18 209/175/18 211/176/18 213/177/18 215/178/18 217/179/18 219/180/18 221/181/18 223/182/18
