# Blender 4.0.2
# www.blender.org
mtllib card.mtl
o Cube
v 3.052349 -0.081030 -1.000000
v 3.052349 0.081030 -1.000000
v 3.052349 -0.081030 1.000000
v 3.052349 0.081030 1.000000
v -3.052349 -0.081030 -1.000000
v -3.052349 0.081030 -1.000000
v -3.052349 -0.081030 1.000000
v -3.052349 0.081030 1.000000
v -3.108086 0.081030 -0.356432
v -3.108086 0.081030 1.001443
v -3.108086 -0.081030 1.001443
v -3.108086 -0.081030 -0.356432
v -3.807172 0.081030 -0.356432
v -3.807172 0.081030 1.001443
v -3.807172 -0.081030 1.001443
v -3.807172 -0.081030 -0.356432
v 3.520154 -0.081030 -1.000000
v 3.520154 0.081030 -1.000000
v 3.520154 -0.081030 1.000000
v 3.520154 0.081030 1.000000
v 3.520154 -0.081030 -1.000000
v 3.520154 0.081030 -1.000000
v 3.520154 -0.081030 1.000000
v 3.520154 0.081030 1.000000
v 3.520154 -0.081030 -0.430588
v 3.520154 0.081030 -0.430588
v 3.520154 -0.081030 0.430588
v 3.520154 0.081030 0.430588
v 4.068801 -0.081030 -1.000000
v 4.068801 0.081030 -1.000000
v 4.068801 -0.081030 1.000000
v 4.068801 0.081030 1.000000
v 4.068801 -0.081030 -0.430588
v 4.068801 0.081030 -0.430588
v 4.068801 -0.081030 0.430588
v 4.068801 0.081030 0.430588
vn -0.0000 -1.0000 -0.0000
vn -0.0000 -0.0000 1.0000
vn -0.0000 1.0000 -0.0000
vn -0.0000 -0.0000 -1.0000
vn -0.9963 -0.0000 -0.0863
vn 0.0259 -0.0000 0.9997
vn -1.0000 -0.0000 -0.0000
vn 1.0000 -0.0000 -0.0000
vt 0.625000 0.500000
vt 0.875000 0.500000
vt 0.875000 0.750000
vt 0.625000 0.750000
vt 0.375000 0.750000
vt 0.625000 1.000000
vt 0.375000 1.000000
vt 0.125000 0.500000
vt 0.125000 0.750000
vt 0.375000 0.500000
vt 0.375000 0.250000
vt 0.625000 0.250000
vt 0.375000 0.000000
vt 0.625000 0.000000
s 0
usemtl Material
f 1/1/1 3/4/1 7/3/1 5/2/1
f 4/5/2 8/7/2 7/6/2 3/4/2
f 6/8/3 9/8/3 10/9/3 8/9/3
f 6/8/3 8/9/3 4/5/3 2/10/3
f 2/10/4 18/10/4 17/1/4 1/1/4
f 6/11/4 2/10/4 1/1/4 5/12/4
f 10/7/2 14/7/2 15/6/2 11/6/2
f 7/3/1 11/3/1 12/2/1 5/2/1
f 5/12/5 12/12/5 9/11/5 6/11/5
f 8/7/6 10/7/6 11/6/6 7/6/6
f 14/13/7 13/11/7 16/12/7 15/14/7
f 12/12/4 16/12/4 13/11/4 9/11/4
f 9/8/3 13/8/3 14/9/3 10/9/3
f 11/3/1 15/3/1 16/2/1 12/2/1
f 20/5/1 24/5/1 22/10/1 18/10/1
f 4/5/3 20/5/3 18/10/3 2/10/3
f 1/1/1 17/1/1 19/4/1 3/4/1
f 3/4/2 19/4/2 20/5/2 4/5/2
f 21/1/1 25/1/1 27/4/1 23/4/1
f 19/4/1 23/4/1 24/5/1 20/5/1
f 17/1/1 21/1/1 23/4/1 19/4/1
f 18/10/1 22/10/1 21/1/1 17/1/1
f 26/10/8 28/5/8 27/4/8 25/1/8
f 21/1/1 29/1/1 33/1/1 25/1/1
f 24/5/1 28/5/1 26/10/1 22/10/1
f 24/5/3 32/5/3 36/5/3 28/5/3
f 30/10/8 34/10/8 33/1/8 29/1/8
f 31/4/8 35/4/8 36/5/8 32/5/8
f 22/10/4 30/10/4 29/1/4 21/1/4
f 28/5/4 36/5/4 35/4/4 27/4/4
f 26/10/3 34/10/3 30/10/3 22/10/3
f 27/4/1 35/4/1 31/4/1 23/4/1
f 23/4/2 31/4/2 32/5/2 24/5/2
f 25/1/2 33/1/2 34/10/2 26/10/2
