# Blender 4.0.2
# www.blender.org
mtllib chair.mtl
o Cube
v -1.000000 -1.670000 1.230000
v -1.000000 -0.110000 1.230000
v -1.000000 -1.670000 1.030000
v -1.000000 -0.110000 1.030000
v -0.800000 -1.670000 1.230000
v -0.800000 -0.110000 1.230000
v -0.800000 -1.670000 1.030000
v -0.800000 -0.110000 1.030000
v 1.000000 1.462116 1.362556
v 1.000000 1.462965 1.118260
v 1.000000 2.304913 1.365482
v 1.000000 2.305761 1.121186
v -1.000000 1.462116 1.362556
v -1.000000 1.462965 1.118260
v -1.000000 2.304913 1.365482
v -1.000000 2.305761 1.121186
v 0.800000 1.462965 1.118260
v -0.800000 1.462965 1.118260
v 0.800000 1.462116 1.362556
v -0.800000 1.462116 1.362556
v 1.000000 -0.122148 -1.000000
v 1.000000 0.122148 -1.092631
v 1.000000 -0.116678 1.229294
v 1.000000 0.122148 1.000000
v -1.000000 -0.122148 -1.000000
v -1.000000 0.122148 -1.092631
v -1.000000 -0.116678 1.229294
v -1.000000 0.122148 1.000000
v -0.800000 0.122148 1.000000
v -0.800000 -0.116678 1.229294
v 0.800000 -0.116678 1.229294
v 0.800000 0.122148 1.000000
v 1.000000 -1.675342 -1.549644
v 1.000000 -1.618255 -1.716433
v 1.000000 -1.110852 -1.362698
v 0.992221 -0.993687 -1.593284
v -1.000000 -1.675342 -1.549644
v -1.000000 -1.618255 -1.716433
v -1.000000 -1.110852 -1.362698
v -1.007779 -0.993687 -1.593284
v -1.000000 0.533209 1.043160
v -1.000000 0.861965 1.082023
v -1.000000 1.148788 1.108095
v -0.800000 1.148787 1.108095
v -0.800000 0.861965 1.082023
v -0.800000 0.533209 1.043160
v -0.800000 0.982301 1.346016
v -0.800000 0.584603 1.309683
v -0.800000 0.238192 1.267815
v -1.000000 0.982301 1.346016
v -1.000000 0.584603 1.309683
v -1.000000 0.238192 1.267815
v 1.000000 1.148787 1.108095
v 1.000000 0.861965 1.082023
v 1.000000 0.533209 1.043160
v 0.800000 1.148787 1.108095
v 0.800000 0.861965 1.082023
v 0.800000 0.533209 1.043160
v 0.800000 0.982301 1.346016
v 0.800000 0.584603 1.309683
v 0.800000 0.238192 1.267815
v 1.000000 0.238192 1.267815
v 1.000000 0.584603 1.309683
v 1.000000 0.982301 1.346016
v -1.000000 -0.079691 -1.300387
v -1.000000 -0.460968 -1.435023
v -0.968995 -0.372898 -1.196893
v -1.000000 -0.852766 -1.333424
v 1.031005 -0.372898 -1.196893
v 1.000000 -0.852766 -1.333424
v 1.000000 -0.460968 -1.435024
v 1.000000 -0.079691 -1.300387
v 0.800000 -1.670000 1.230000
v 0.800000 -0.110000 1.230000
v 0.800000 -1.670000 1.030000
v 0.800000 -0.110000 1.030000
v 1.000000 -1.670000 1.230000
v 1.000000 -0.110000 1.230000
v 1.000000 -1.670000 1.030000
v 1.000000 -0.110000 1.030000
vn -1.0000 -0.0000 -0.0000
vn -0.0000 -0.0000 -1.0000
vn 1.0000 -0.0000 -0.0000
vn -0.0000 -0.0000 1.0000
vn -0.0000 -1.0000 -0.0000
vn -0.0000 1.0000 -0.0000
vn -0.0000 0.0035 -1.0000
vn -0.0000 -1.0000 -0.0035
vn -0.0000 -0.0035 1.0000
vn -0.0000 1.0000 0.0035
vn -0.0000 1.0000 -0.0025
vn -0.0000 0.1127 -0.9936
vn -0.0000 -0.6926 -0.7214
vn -0.0000 0.1079 -0.9942
vn -0.0000 -0.1044 0.9945
vn -0.0000 0.3144 -0.9493
vn -0.9996 0.0031 0.0282
vn 0.9998 0.0105 -0.0150
vn -0.0000 -0.1935 0.9811
vn -0.9998 -0.0105 0.0150
vn -0.0000 0.9461 0.3238
vn -0.0000 -0.1174 0.9931
vn -0.0000 -0.0905 0.9959
vn -0.0000 -0.0323 0.9995
vn -0.0000 0.1200 -0.9928
vn -0.0000 0.0910 -0.9959
vn -0.0000 0.0345 -0.9994
vn 0.9996 -0.0031 -0.0282
vn -0.0000 -0.2848 0.9586
vn 0.9913 0.0056 -0.1311
vn 0.9981 0.0607 0.0086
vn -0.0000 0.2737 -0.9618
vn -0.0000 0.6176 -0.7865
vn -0.9913 -0.0056 0.1311
vn -0.9981 -0.0607 -0.0086
vn -0.0000 -0.3330 0.9429
vn -0.0000 -0.7172 0.6968
vt 0.375000 0.000000
vt 0.625000 0.000000
vt 0.625000 0.250000
vt 0.375000 0.250000
vt 0.625000 0.500000
vt 0.375000 0.500000
vt 0.625000 0.750000
vt 0.375000 0.750000
vt 0.625000 1.000000
vt 0.375000 1.000000
vt 0.125000 0.500000
vt 0.125000 0.750000
vt 0.875000 0.500000
vt 0.875000 0.750000
vt 0.375000 0.687500
vt 0.625000 0.687500
vt 0.625000 0.812500
vt 0.375000 0.812500
vt 0.875000 0.666667
vt 0.625000 0.666667
vt 0.125000 0.687500
vt 0.375000 0.666667
vt 0.875000 0.687500
vt 0.375000 0.062500
vt 0.625000 0.062500
vt 0.125000 0.625000
vt 0.125000 0.562500
vt 0.625000 0.625000
vt 0.375000 0.625000
vt 0.625000 0.437500
vt 0.375000 0.437500
vt 0.875000 0.625000
vt 0.875000 0.562500
vt 0.375000 0.125000
vt 0.625000 0.125000
vt 0.375000 0.187500
vt 0.625000 0.187500
vt 0.375000 0.562500
vt 0.625000 0.562500
vt 0.375000 0.083333
vt 0.625000 0.083333
vt 0.125000 0.666667
vt 0.375000 0.166667
vt 0.625000 0.166667
vt 0.875000 0.583333
vt 0.625000 0.583333
vt 0.375000 0.583333
vt 0.125000 0.583333
s 0
usemtl Material
f 1/1/1 2/2/1 4/3/1 3/4/1
f 3/4/2 4/3/2 8/5/2 7/6/2
f 7/6/3 8/5/3 6/7/3 5/8/3
f 5/8/4 6/7/4 2/9/4 1/10/4
f 3/11/5 7/6/5 5/8/5 1/12/5
f 8/5/6 4/13/6 2/14/6 6/7/6
f 9/5/7 13/13/7 15/14/7 11/7/7
f 12/8/8 11/7/8 15/9/8 16/10/8
f 16/1/3 15/2/3 13/3/3 14/4/3
f 14/11/9 10/6/9 12/8/9 16/12/9
f 10/6/1 9/5/1 11/7/1 12/8/1
f 31/7/3 32/8/3 58/15/3 61/16/3
f 18/4/10 20/3/10 19/5/10 17/6/10
f 29/10/1 30/9/1 49/17/1 46/18/1
f 10/6/6 14/11/6 18/11/6 17/6/6
f 13/13/6 9/5/6 19/5/6 20/13/6
f 21/5/11 25/13/11 27/14/11 23/7/11
f 28/12/6 24/8/6 32/8/6 29/12/6
f 28/1/3 27/2/3 25/3/3 26/4/3
f 26/11/5 22/6/5 24/8/5 28/12/5
f 22/6/1 21/5/1 23/7/1 24/8/1
f 35/7/12 39/14/12 68/19/12 70/20/12
f 32/8/13 31/7/13 30/9/13 29/10/13
f 23/7/6 27/14/6 30/14/6 31/7/6
f 23/7/14 31/7/14 61/16/14 62/16/14
f 28/12/15 29/12/15 46/21/15 41/21/15
f 33/5/16 37/13/16 39/14/16 35/7/16
f 36/8/17 35/7/17 70/20/17 71/22/17
f 40/1/18 39/2/18 37/3/18 38/4/18
f 38/11/19 34/6/19 36/8/19 40/12/19
f 34/6/20 33/5/20 35/7/20 36/8/20
f 38/4/21 37/3/21 33/5/21 34/6/21
f 30/14/14 27/14/14 52/23/14 49/23/14
f 27/2/3 28/1/3 41/24/3 52/25/3
f 41/21/22 46/21/22 45/26/22 42/26/22
f 42/26/23 45/26/23 44/27/23 43/27/23
f 43/27/24 44/27/24 18/11/24 14/11/24
f 46/18/1 49/17/1 48/28/1 45/29/1
f 45/29/1 48/28/1 47/30/1 44/31/1
f 44/31/1 47/30/1 20/3/1 18/4/1
f 49/23/25 52/23/25 51/32/25 48/32/25
f 48/32/26 51/32/26 50/33/26 47/33/26
f 47/33/27 50/33/27 13/13/27 20/13/27
f 52/25/3 41/24/3 42/34/3 51/35/3
f 51/35/3 42/34/3 43/36/3 50/37/3
f 50/37/3 43/36/3 14/4/3 13/3/3
f 32/8/15 24/8/15 55/15/15 58/15/15
f 24/8/1 23/7/1 62/16/1 55/15/1
f 58/15/22 55/15/22 54/29/22 57/29/22
f 57/29/23 54/29/23 53/38/23 56/38/23
f 56/38/24 53/38/24 10/6/24 17/6/24
f 61/16/3 58/15/3 57/29/3 60/28/3
f 60/28/3 57/29/3 56/38/3 59/39/3
f 59/39/3 56/38/3 17/6/3 19/5/3
f 62/16/25 61/16/25 60/28/25 63/28/25
f 63/28/26 60/28/26 59/39/26 64/39/26
f 64/39/27 59/39/27 19/5/27 9/5/27
f 55/15/1 62/16/1 63/28/1 54/29/1
f 54/29/1 63/28/1 64/39/1 53/38/1
f 53/38/1 64/39/1 9/5/1 10/6/1
f 39/2/28 40/1/28 66/40/28 68/41/28
f 40/12/29 36/8/29 71/22/29 66/42/29
f 68/41/30 66/40/30 65/43/30 67/44/30
f 67/44/31 65/43/31 26/4/31 25/3/31
f 70/20/32 68/19/32 67/45/32 69/46/32
f 69/46/33 67/45/33 25/13/33 21/5/33
f 71/22/34 70/20/34 69/46/34 72/47/34
f 72/47/35 69/46/35 21/5/35 22/6/35
f 66/42/36 71/22/36 72/47/36 65/48/36
f 65/48/37 72/47/37 22/6/37 26/11/37
f 73/1/1 74/2/1 76/3/1 75/4/1
f 75/4/2 76/3/2 80/5/2 79/6/2
f 79/6/3 80/5/3 78/7/3 77/8/3
f 77/8/4 78/7/4 74/9/4 73/10/4
f 75/11/5 79/6/5 77/8/5 73/12/5
f 80/5/6 76/13/6 74/14/6 78/7/6
