# Blender 4.3.0
# www.blender.org
mtllib forziere-ch.mtl
o Cylinder.001
v -0.154476 1.219480 0.970697
v -0.085372 1.298266 1.114566
v -0.154476 1.358878 0.928411
v -0.085372 1.373300 1.091805
v 0.199413 1.219480 0.970697
v 0.130309 1.298266 1.114566
v 0.199413 1.358878 0.928411
v 0.130309 1.373300 1.091805
v -0.154476 1.266084 1.124329
v -0.154476 1.405482 1.082043
v 0.199413 1.405482 1.082043
v 0.199413 1.266084 1.124329
v -0.085372 1.262141 0.995480
v -0.085372 1.337175 0.972718
v 0.130309 1.337175 0.972718
v 0.130309 1.262141 0.995480
vn -1.0000 -0.0000 -0.0000
vn -0.0000 0.9569 -0.2903
vn 1.0000 -0.0000 -0.0000
vn -0.0000 -0.9569 0.2903
vn -0.0000 -0.2903 -0.9569
vn -0.0000 0.2903 0.9569
vt 0.375000 0.000000
vt 0.625000 0.000000
vt 0.625000 0.250000
vt 0.375000 0.250000
vt 0.625000 0.500000
vt 0.375000 0.500000
vt 0.625000 0.750000
vt 0.375000 0.750000
vt 0.625000 1.000000
vt 0.375000 1.000000
vt 0.125000 0.500000
vt 0.125000 0.750000
vt 0.673818 0.692284
vt 0.673818 0.557716
vt 0.826183 0.692284
vt 0.826182 0.557716
vt 0.875000 0.500000
vt 0.875000 0.750000
s 0
f 1/1/1 9/2/1 10/3/1 3/4/1
f 3/4/2 10/3/2 11/5/2 7/6/2
f 7/6/3 11/5/3 12/7/3 5/8/3
f 5/8/4 12/7/4 9/9/4 1/10/4
f 3/11/5 7/6/5 5/8/5 1/12/5
f 6/13/1 8/14/1 15/14/1 16/13/1
f 2/15/6 4/16/6 10/17/6 9/18/6
f 4/16/6 8/14/6 11/5/6 10/17/6
f 8/14/6 6/13/6 12/7/6 11/5/6
f 6/13/6 2/15/6 9/18/6 12/7/6
f 15/14/6 14/16/6 13/15/6 16/13/6
f 4/16/3 2/15/3 13/15/3 14/16/3
f 2/15/2 6/13/2 16/13/2 13/15/2
f 8/14/4 4/16/4 14/16/4 15/14/4
